# xmcd CD database file
#
# Track frame offsets:
#	150
#	13895
#	29235
#	44235
#	55682
#	67615
#	79982
#	92460
#	107625
#	122160
#	135917
#	152955
#	170412
#	183500
#	195567
#	208277
#	221952
#	234212
#	245910
#	258612
#
# Disc length: 3623 seconds
#
# Revision: 1
# Processed by: cddbd v1.5.1PL2 Copyright (c) Steve Scherf et al.
# Submitted via: CDex 1.51
#
DISCID=2a0e2514
DTITLE=Stan Getz - Cool Bebop
DYEAR=2000
DGENRE=Jazz
TTITLE0=Loaded
TTITLE1=Grab Your Axe, Max
TTITLE2=Always
TTITLE3=Opus De Bop
TTITLE4=And the Angels Swing
TTITLE5=Running Water
TTITLE6=Don't Worry 'Bout Me
TTITLE7=Four Brothers
TTITLE8=Early Autumn
TTITLE9=Keeper of the Flame
TTITLE10=Five Brothers
TTITLE11=Battle of the Saxes
TTITLE12=Stan Gets Along
TTITLE13=Stan's Mood
TTITLE14=Slow
TTITLE15=Fast
TTITLE16=Prezervation
TTITLE17=Crazy Chords
TTITLE18=Indian Summer
TTITLE19=Long Island Sound
EXTD=YEAR: 2000
EXTT0=
EXTT1=
EXTT2=
EXTT3=
EXTT4=
EXTT5=
EXTT6=
EXTT7=
EXTT8=
EXTT9=
EXTT10=
EXTT11=
EXTT12=
EXTT13=
EXTT14=
EXTT15=
EXTT16=
EXTT17=
EXTT18=
EXTT19=
PLAYORDER=
